<svg class="animated" id="freepik_stories-events" xmlns="http://www.w3.org/2000/svg" viewBox="0 0 500 500" version="1.1" xmlns:xlink="http://www.w3.org/1999/xlink" xmlns:svgjs="http://svgjs.com/svgjs"><style>svg#freepik_stories-events:not(.animated) .animable {opacity: 0;}svg#freepik_stories-events.animated #freepik--event-calendar--inject-6 {animation: 1s 1 forwards cubic-bezier(.36,-0.01,.5,1.38) slideUp,1.5s Infinite  linear floating;animation-delay: 0s,1s;}svg#freepik_stories-events.animated #freepik--Character--inject-6 {animation: 1s 1 forwards cubic-bezier(.36,-0.01,.5,1.38) slideDown;animation-delay: 0s;}            @keyframes slideUp {                0% {                    opacity: 0;                    transform: translateY(30px);                }                100% {                    opacity: 1;                    transform: inherit;                }            }                    @keyframes floating {                0% {                    opacity: 1;                    transform: translateY(0px);                }                50% {                    transform: translateY(-10px);                }                100% {                    opacity: 1;                    transform: translateY(0px);                }            }                    @keyframes slideDown {                0% {                    opacity: 0;                    transform: translateY(-30px);                }                100% {                    opacity: 1;                    transform: translateY(0);                }            }        </style><g id="freepik--Shadow--inject-6" style="transform-origin: 250px 416.239983px;" class="animable"><ellipse id="freepik--path--inject-6" cx="250" cy="416.24" rx="193.89" ry="11.32" style="fill: rgb(245, 245, 245); transform-origin: 250px 416.24px;" class="animable"></ellipse></g><g id="freepik--event-calendar--inject-6" style="transform-origin: 214.275009px 280.835007px;" class="animable"><polygon points="67.78 359.58 312.67 359.58 330.27 207.23 85.39 207.23 67.78 359.58" style="fill: rgb(255, 215, 0); transform-origin: 199.024994px 283.404991px;" id="elgik23x2ppy" class="animable"></polygon><g id="eldhqpen51bam"><polygon points="67.78 359.58 312.67 359.58 330.27 207.23 85.39 207.23 67.78 359.58" style="fill: rgb(255, 255, 255); opacity: 0.4; transform-origin: 199.024994px 283.404991px;" class="animable"></polygon></g><polygon points="360.77 365.29 115.88 365.29 85.39 207.23 330.27 207.23 360.77 365.29" style="fill: rgb(255, 215, 0); transform-origin: 223.080002px 286.260002px;" id="el0pf4pbyjntyj" class="animable"></polygon><g id="elpwu2pfinjvq"><polygon points="360.77 365.29 115.88 365.29 85.39 207.23 330.27 207.23 360.77 365.29" style="fill: rgb(255, 255, 255); opacity: 0.6; transform-origin: 223.080002px 286.260002px;" class="animable"></polygon></g><polygon points="351.39 356.81 121.98 356.81 97.35 229.1 326.76 229.1 351.39 356.81" style="fill: rgb(255, 255, 255); transform-origin: 224.370003px 292.955002px;" id="elffgngiahtus" class="animable"></polygon><g id="elsfvajhnifro"><g style="opacity: 0.5; transform-origin: 224.369995px 292.955002px;" class="animable"><polygon points="139.84 260.07 115.85 260.07 111.22 236.07 135.21 236.07 139.84 260.07" style="fill: rgb(255, 215, 0); transform-origin: 125.529999px 248.070007px;" id="elz0kkuwhgmt" class="animable"></polygon><polygon points="320.21 260.07 296.21 260.07 291.59 236.07 315.58 236.07 320.21 260.07" style="fill: rgb(255, 215, 0); transform-origin: 305.899994px 248.070007px;" id="eljht7q1f0yxb" class="animable"></polygon><polygon points="290.14 260.07 266.15 260.07 261.52 236.07 285.52 236.07 290.14 260.07" style="fill: rgb(255, 215, 0); transform-origin: 275.830002px 248.070007px;" id="elv3o6fzy2jl" class="animable"></polygon><polygon points="260.08 260.07 236.09 260.07 231.46 236.07 255.46 236.07 260.08 260.07" style="fill: rgb(255, 215, 0); transform-origin: 245.769997px 248.070007px;" id="elm3c3pbcagq" class="animable"></polygon><polygon points="230.02 260.07 206.03 260.07 201.4 236.07 225.39 236.07 230.02 260.07" style="fill: rgb(255, 215, 0); transform-origin: 215.709999px 248.070007px;" id="elrt4spy6991" class="animable"></polygon><polygon points="199.96 260.07 175.97 260.07 171.34 236.07 195.33 236.07 199.96 260.07" style="fill: rgb(255, 215, 0); transform-origin: 185.650002px 248.070007px;" id="elgwjkbkpv9i" class="animable"></polygon><polygon points="169.9 260.07 145.91 260.07 141.28 236.07 165.27 236.07 169.9 260.07" style="fill: rgb(255, 215, 0); transform-origin: 155.589996px 248.070007px;" id="elyf8a2915flq" class="animable"></polygon><g id="elhasc6lb1ami"><polygon points="145.61 289.99 121.62 289.99 116.99 266 140.98 266 145.61 289.99" style="fill: rgb(255, 215, 0); opacity: 0.5; transform-origin: 131.299999px 277.994995px;" class="animable"></polygon></g><polygon points="325.98 289.99 301.99 289.99 297.36 266 321.35 266 325.98 289.99" style="fill: rgb(255, 215, 0); transform-origin: 311.669998px 277.994995px;" id="elqp52wtehpg" class="animable"></polygon><g id="ele57rf86hzqb"><polygon points="295.92 289.99 271.93 289.99 267.3 266 291.29 266 295.92 289.99" style="fill: rgb(255, 215, 0); opacity: 0.5; transform-origin: 281.610001px 277.994995px;" class="animable"></polygon></g><polygon points="265.86 289.99 241.86 289.99 237.24 266 261.23 266 265.86 289.99" style="fill: rgb(255, 215, 0); transform-origin: 251.549995px 277.994995px;" id="elp6wbz12l1z" class="animable"></polygon><polygon points="235.79 289.99 211.8 289.99 207.17 266 231.17 266 235.79 289.99" style="fill: rgb(255, 215, 0); transform-origin: 221.479996px 277.994995px;" id="elqqxyuimju9f" class="animable"></polygon><polygon points="205.73 289.99 181.74 289.99 177.11 266 201.1 266 205.73 289.99" style="fill: rgb(255, 215, 0); transform-origin: 191.419998px 277.994995px;" id="elvkn9fmob9l" class="animable"></polygon><polygon points="175.67 289.99 151.68 289.99 147.05 266 171.04 266 175.67 289.99" style="fill: rgb(255, 215, 0); transform-origin: 161.360001px 277.994995px;" id="elpby80nkohc" class="animable"></polygon><polygon points="151.38 319.91 127.39 319.91 122.76 295.92 146.75 295.92 151.38 319.91" style="fill: rgb(255, 215, 0); transform-origin: 137.070004px 307.915009px;" id="elnnd74dazm0c" class="animable"></polygon><polygon points="331.75 319.91 307.76 319.91 303.13 295.92 327.12 295.92 331.75 319.91" style="fill: rgb(255, 215, 0); transform-origin: 317.440002px 307.915009px;" id="el1vrhrm9ubr1" class="animable"></polygon><polygon points="301.69 319.91 277.7 319.91 273.07 295.92 297.06 295.92 301.69 319.91" style="fill: rgb(255, 215, 0); transform-origin: 287.380005px 307.915009px;" id="eltvjh8dzi1lp" class="animable"></polygon><polygon points="271.63 319.91 247.64 319.91 243.01 295.92 267 295.92 271.63 319.91" style="fill: rgb(255, 215, 0); transform-origin: 257.32px 307.915009px;" id="el86x0jg03t6e" class="animable"></polygon><polygon points="241.57 319.91 217.57 319.91 212.95 295.92 236.94 295.92 241.57 319.91" style="fill: rgb(255, 215, 0); transform-origin: 227.260002px 307.915009px;" id="eld0o7f3a0beb" class="animable"></polygon><polygon points="211.5 319.91 187.51 319.91 182.88 295.92 206.88 295.92 211.5 319.91" style="fill: rgb(255, 215, 0); transform-origin: 197.190002px 307.915009px;" id="el1z4q1qgj62k" class="animable"></polygon><polygon points="181.44 319.91 157.45 319.91 152.82 295.92 176.81 295.92 181.44 319.91" style="fill: rgb(255, 215, 0); transform-origin: 167.130005px 307.915009px;" id="elbma2nv3muib" class="animable"></polygon><polygon points="157.15 349.84 133.16 349.84 128.53 325.84 152.53 325.84 157.15 349.84" style="fill: rgb(255, 215, 0); transform-origin: 142.839996px 337.839996px;" id="el7nowg7jt6rc" class="animable"></polygon><polygon points="337.52 349.84 313.53 349.84 308.9 325.84 332.89 325.84 337.52 349.84" style="fill: rgb(255, 215, 0); transform-origin: 323.209991px 337.839996px;" id="eltahs9hl46dj" class="animable"></polygon><polygon points="307.46 349.84 283.47 349.84 278.84 325.84 302.83 325.84 307.46 349.84" style="fill: rgb(255, 215, 0); transform-origin: 293.149994px 337.839996px;" id="elwoc5monpted" class="animable"></polygon><polygon points="277.4 349.84 253.41 349.84 248.78 325.84 272.77 325.84 277.4 349.84" style="fill: rgb(255, 215, 0); transform-origin: 263.089996px 337.839996px;" id="ely100j4hec9" class="animable"></polygon><polygon points="247.34 349.84 223.35 349.84 218.72 325.84 242.71 325.84 247.34 349.84" style="fill: rgb(255, 215, 0); transform-origin: 233.029999px 337.839996px;" id="el99np92s7ckm" class="animable"></polygon><polygon points="217.28 349.84 193.28 349.84 188.66 325.84 212.65 325.84 217.28 349.84" style="fill: rgb(255, 215, 0); transform-origin: 202.970001px 337.839996px;" id="elvbhfpd7xvna" class="animable"></polygon><g id="el6tnd9w7bjio"><polygon points="187.22 349.84 163.22 349.84 158.6 325.84 182.59 325.84 187.22 349.84" style="fill: rgb(255, 215, 0); opacity: 0.5; transform-origin: 172.910004px 337.839996px;" class="animable"></polygon></g></g></g><path d="M115.59,218.08l-.31-1.59c2.83,0,4.41-4.24,3.44-9.26s-4.18-9.27-7-9.27-4.41,4.25-3.45,9.27h-1.58c-1.18-6.09.9-10.85,4.72-10.85s7.74,4.76,8.91,10.85S119.41,218.08,115.59,218.08Z" style="fill: rgb(38, 50, 56); transform-origin: 113.502678px 207.230003px;" id="elelxvcz3tq2k" class="animable"></path><path d="M139.27,218.08l-.31-1.59c2.83,0,4.41-4.24,3.44-9.26s-4.18-9.27-7-9.27-4.41,4.25-3.45,9.27h-1.58c-1.18-6.09.9-10.85,4.72-10.85s7.74,4.76,8.91,10.85S143.09,218.08,139.27,218.08Z" style="fill: rgb(38, 50, 56); transform-origin: 137.182671px 207.230003px;" id="el9dg7arjp1i" class="animable"></path><path d="M163,218.08l-.31-1.59c2.83,0,4.41-4.24,3.44-9.26s-4.18-9.27-7-9.27-4.42,4.25-3.45,9.27H154c-1.18-6.09.9-10.85,4.72-10.85s7.74,4.76,8.91,10.85S166.77,218.08,163,218.08Z" style="fill: rgb(38, 50, 56); transform-origin: 160.815186px 207.230003px;" id="el68oxuu0ir4e" class="animable"></path><path d="M186.62,218.08l-.3-1.59c2.83,0,4.41-4.24,3.44-9.26s-4.18-9.27-7-9.27-4.41,4.25-3.44,9.27h-1.59c-1.17-6.09.91-10.85,4.73-10.85s7.73,4.76,8.91,10.85S190.45,218.08,186.62,218.08Z" style="fill: rgb(38, 50, 56); transform-origin: 184.551346px 207.230003px;" id="eltte4cnwby2h" class="animable"></path><path d="M210.3,218.08l-.3-1.59c2.83,0,4.41-4.24,3.44-9.26s-4.18-9.27-7-9.27-4.41,4.25-3.44,9.27h-1.59c-1.17-6.09.91-10.85,4.73-10.85s7.73,4.76,8.91,10.85S214.13,218.08,210.3,218.08Z" style="fill: rgb(38, 50, 56); transform-origin: 208.231339px 207.230003px;" id="elm4kl2vb052" class="animable"></path><path d="M234,218.08l-.3-1.59c2.83,0,4.41-4.24,3.44-9.26s-4.18-9.27-7-9.27-4.41,4.25-3.44,9.27h-1.59c-1.17-6.09.9-10.85,4.73-10.85s7.73,4.76,8.91,10.85S237.81,218.08,234,218.08Z" style="fill: rgb(38, 50, 56); transform-origin: 231.930069px 207.230003px;" id="el97vqg9m46t" class="animable"></path><path d="M257.66,218.08l-.3-1.59c2.83,0,4.41-4.24,3.44-9.26s-4.18-9.27-7-9.27-4.41,4.25-3.44,9.27h-1.59c-1.17-6.09.9-10.85,4.73-10.85s7.73,4.76,8.91,10.85S261.49,218.08,257.66,218.08Z" style="fill: rgb(38, 50, 56); transform-origin: 255.590919px 207.230003px;" id="el3m5yqx9smj5" class="animable"></path><path d="M281.34,218.08l-.3-1.59c2.83,0,4.41-4.24,3.44-9.26s-4.18-9.27-7-9.27-4.41,4.25-3.44,9.27h-1.59c-1.17-6.09.9-10.85,4.73-10.85s7.73,4.76,8.91,10.85S285.16,218.08,281.34,218.08Z" style="fill: rgb(38, 50, 56); transform-origin: 279.270508px 207.230003px;" id="el95owac7912" class="animable"></path><path d="M305,218.08l-.3-1.59c2.83,0,4.41-4.24,3.44-9.26s-4.18-9.27-7-9.27-4.41,4.25-3.44,9.27h-1.59c-1.17-6.09.9-10.85,4.73-10.85s7.73,4.76,8.9,10.85S308.84,218.08,305,218.08Z" style="fill: rgb(38, 50, 56); transform-origin: 302.924942px 207.230003px;" id="elk4ytkvwhfs" class="animable"></path><polygon points="202.69 256.69 118.57 256.69 113.94 232.7 198.06 232.7 202.69 256.69" style="fill: rgb(255, 215, 0); transform-origin: 158.315002px 244.695px;" id="el14h88ewdriei" class="animable"></polygon><polygon points="238.54 286.62 214.54 286.62 209.92 262.62 233.91 262.62 238.54 286.62" style="fill: rgb(255, 215, 0); transform-origin: 224.229996px 274.619995px;" id="el3txcuu5eal9" class="animable"></polygon><path d="M313.6,317.34l-1.3-1.13a39.6,39.6,0,0,0-8.83-5.85l.83-2.45a43.18,43.18,0,0,1,8.34,5.29,54.83,54.83,0,0,1,17-16.21l1.79,2.44a52.59,52.59,0,0,0-17.06,16.71Z" style="fill: rgb(255, 215, 0); transform-origin: 317.450027px 307.164993px;" id="elrkq8hy24klh" class="animable"></path><polygon points="229.74 266.59 227.57 266.59 223.94 273.16 217.79 266.59 215.62 266.59 223.14 274.62 218.71 282.64 220.89 282.64 224.51 276.08 230.66 282.64 232.84 282.64 225.31 274.62 229.74 266.59" style="fill: rgb(255, 255, 255); transform-origin: 224.229996px 274.615005px;" id="elvgscl1br51" class="animable"></polygon><path d="M274.21,324.06l4,20.81H257.41l-4-20.81h20.81m1.29-1.59h-24l4.63,24h24l-4.62-24Z" style="fill: rgb(255, 215, 0); transform-origin: 265.825012px 334.470001px;" id="elvav5dzj9ras" class="animable"></path><polygon points="214.23 316.54 160.18 316.54 155.55 292.55 209.6 292.55 214.23 316.54" style="fill: rgb(38, 50, 56); transform-origin: 184.889999px 304.544998px;" id="elpm8kyn4oye" class="animable"></polygon><path d="M177,302.12a3.69,3.69,0,0,1-3.72,4.61,5.85,5.85,0,0,1-5.5-4.61,3.7,3.7,0,0,1,3.72-4.61A5.86,5.86,0,0,1,177,302.12Z" style="fill: rgb(255, 255, 255); transform-origin: 172.391502px 302.120239px;" id="elb19jtzrzjdp" class="animable"></path><path d="M178.11,306.48a5.32,5.32,0,0,1-4.48,2.21,8,8,0,0,1-5.32-2.2,4.8,4.8,0,0,0-2.44,5.08h16.64A7.71,7.71,0,0,0,178.11,306.48Z" style="fill: rgb(255, 255, 255); transform-origin: 174.151253px 309.024994px;" id="el3hbl1pz3bdq" class="animable"></path><polygon points="205.22 303.05 186.82 303.05 186.31 300.4 204.71 300.4 205.22 303.05" style="fill: rgb(255, 255, 255); transform-origin: 195.764999px 301.724991px;" id="el7voe1ug84zq" class="animable"></polygon><polygon points="200.15 308.68 187.91 308.68 187.4 306.03 199.64 306.03 200.15 308.68" style="fill: rgb(255, 255, 255); transform-origin: 193.774994px 307.354996px;" id="elb32ba7tlqwo" class="animable"></polygon><path d="M296.76,234.94c4.74,0,11.45.69,16.52,4a8,8,0,0,1,3.71,5c.89,3.93-1.2,8.22-3.51,10.55-3.65,3.68-9.33,6-16,6.46-.76.06-1.54.09-2.31.09a37.52,37.52,0,0,1-13.7-2.72c-4.29-1.71-8.84-4-10.12-8.46a7.32,7.32,0,0,1,.79-6.2,9.43,9.43,0,0,1,2.93-2.86,38.82,38.82,0,0,1,18.36-5.75c1.11-.07,2.23-.11,3.33-.11m-.3-1.54c-1.19,0-2.34,0-3.42.12a40.16,40.16,0,0,0-19,5.94,10.65,10.65,0,0,0-3.29,3.22,8.73,8.73,0,0,0-.91,7.33c1.5,5.18,6.63,7.87,11.29,9.72a39,39,0,0,0,14.33,2.84c.81,0,1.61,0,2.41-.08,6.34-.46,12.66-2.62,16.82-6.82s6.81-13.11-.74-18c-5.09-3.29-11.75-4.27-17.5-4.27Z" style="fill: rgb(38, 50, 56); transform-origin: 294.077469px 247.985008px;" id="el6e6rrozpg9j" class="animable"></path></g><g id="freepik--Character--inject-6" style="transform-origin: 369.282089px 263.766586px;" class="animable animator-active"><polygon points="387.02 409.16 394.18 407.26 390.69 390.42 383.53 392.33 387.02 409.16" style="fill: rgb(181, 91, 82); transform-origin: 388.854996px 399.790009px;" id="elk5pua1787dl" class="animable"></polygon><path d="M394.41,405.94l-7.91,2.6a.53.53,0,0,0-.37.65l1.68,6.39a1.31,1.31,0,0,0,1.64.85c2.74-1,4-1.55,7.48-2.69,2.14-.71,7.32-2.3,10.27-3.27s1.92-3.86.58-3.72c-6,.66-9.51.13-12-.77A2.05,2.05,0,0,0,394.41,405.94Z" style="fill: rgb(38, 50, 56); transform-origin: 397.607208px 411.165924px;" id="eluzuskw72md" class="animable"></path><g id="elyaf6otksui"><polygon points="383.53 392.33 390.69 390.42 392.49 399.1 385.32 401.01 383.53 392.33" style="opacity: 0.2; transform-origin: 388.009995px 395.715012px;" class="animable"></polygon></g><path d="M365.17,220.72s10,60.35,13,81.4c3.25,23.05,15.42,92.39,15.42,92.39l-12,4.54s-19.15-68.17-24.44-90.58c-5.75-24.33-18.41-87.75-18.41-87.75Z" style="fill: rgb(38, 50, 56); transform-origin: 366.165024px 309.88501px;" id="elkqruwn373io" class="animable"></path><g id="el5uqwen2g5jo"><path d="M349.1,245.47c5.12,12.79,5.7,34.53,3.62,43.44-3.14-14.63-6.74-32.13-9.51-45.74C344.2,239.68,346,237.69,349.1,245.47Z" style="opacity: 0.3; transform-origin: 348.527939px 264.501465px;" class="animable"></path></g><polygon points="381.05 400.75 394.98 396.57 394.58 390.87 378 395.72 381.05 400.75" style="fill: rgb(38, 50, 56); transform-origin: 386.490005px 395.809998px;" id="elitgblzrxeu" class="animable"></polygon><path d="M397.31,406.35a9.51,9.51,0,0,1-2,.36.19.19,0,0,1-.17-.08.19.19,0,0,1,0-.19c.17-.23,1.72-2.25,2.69-2.2a.66.66,0,0,1,.53.34.94.94,0,0,1,.09,1A2,2,0,0,1,397.31,406.35Zm-1.59,0c1.35-.17,2.26-.51,2.48-.94a.64.64,0,0,0-.07-.63.32.32,0,0,0-.26-.17C397.35,404.56,396.37,405.54,395.72,406.33Z" style="fill: rgb(255, 215, 0); transform-origin: 396.834px 405.474854px;" id="elfc5jncf0wv" class="animable"></path><path d="M395.39,406.7a.11.11,0,0,1-.08,0,.17.17,0,0,1-.13-.1c0-.09-.86-2.06-.38-3a.91.91,0,0,1,.62-.46.66.66,0,0,1,.76.31c.42.71-.15,2.53-.71,3.17C395.44,406.68,395.42,406.7,395.39,406.7Zm0-3.17a.55.55,0,0,0-.3.26,3.84,3.84,0,0,0,.27,2.39,3.45,3.45,0,0,0,.5-2.53c-.05-.09-.14-.19-.39-.14Z" style="fill: rgb(255, 215, 0); transform-origin: 395.489792px 404.910553px;" id="elvjgpn1qgj19" class="animable"></path><path d="M363.65,158.59c.29.47.69,1.13,1.06,1.7l1.14,1.8c.79,1.19,1.57,2.38,2.4,3.55,1.63,2.33,3.35,4.59,5.13,6.74a60,60,0,0,0,5.62,5.93,30.19,30.19,0,0,0,6,4.36l-1.58-.45a16.29,16.29,0,0,0,4.71.27c.86-.08,1.74-.19,2.64-.35s1.81-.38,2.73-.63a48.13,48.13,0,0,0,5.57-1.89c.93-.38,1.86-.77,2.79-1.19s1.88-.89,2.69-1.27l.27-.13a3.25,3.25,0,0,1,4.33,1.52,3.28,3.28,0,0,1-.59,3.65c-.91.94-1.71,1.69-2.61,2.48s-1.8,1.49-2.75,2.19a43.65,43.65,0,0,1-6.12,3.74,33.54,33.54,0,0,1-7.09,2.61,31.31,31.31,0,0,1-4,.65,25.18,25.18,0,0,1-4.25,0,4.18,4.18,0,0,1-1.17-.29l-.4-.17A38.38,38.38,0,0,1,371,187.8a60.64,60.64,0,0,1-7.33-7,85.18,85.18,0,0,1-6.14-7.64q-1.41-2-2.72-4c-.43-.69-.86-1.37-1.28-2.08s-.8-1.37-1.26-2.23a6.49,6.49,0,0,1,11.29-6.42Z" style="fill: rgb(38, 50, 56); transform-origin: 380.441147px 174.554115px;" id="el7n2lfncxd2j" class="animable"></path><g id="eltyqvxembxsg"><path d="M369.81,176.88c-3.9-8-10.55-7.54-13.23-5.07l.76,1.11a85.27,85.27,0,0,0,5.86,7.4,66.23,66.23,0,0,0,6.92,6.77c.78.64,1.59,1.27,2.41,1.87A32,32,0,0,0,369.81,176.88Z" style="opacity: 0.3; transform-origin: 364.554993px 179.589417px;" class="animable"></path></g><path d="M406.77,176l5-4.17,3,6.47s-7.45,5.33-9.16,3.45l-.2-2.41A3.93,3.93,0,0,1,406.77,176Z" style="fill: rgb(181, 91, 82); transform-origin: 410.082001px 176.990822px;" id="el0sa8sae3nmbc" class="animable"></path><polygon points="418.44 172.62 420.01 177.62 414.73 178.27 411.75 171.8 418.44 172.62" style="fill: rgb(181, 91, 82); transform-origin: 415.880005px 175.035004px;" id="elnp1qrwgzaph" class="animable"></polygon><polygon points="324.38 408.92 331.79 408.92 332.75 391.75 325.34 391.75 324.38 408.92" style="fill: rgb(181, 91, 82); transform-origin: 328.565002px 400.335007px;" id="eld2mx37dwde" class="animable"></polygon><path d="M332.18,408.06h-8.33a.53.53,0,0,0-.55.51l-.41,6.59a1.32,1.32,0,0,0,1.3,1.32c2.9-.05,4.29-.22,7.95-.22,2.25,0,8.46.23,11.57.23s3-3.08,1.71-3.36c-5.92-1.24-9.87-3-12-4.61A2,2,0,0,0,332.18,408.06Z" style="fill: rgb(38, 50, 56); transform-origin: 334.580612px 412.274796px;" id="elcuvm1br29a" class="animable"></path><g id="elzecfs58zbfj"><polygon points="325.34 391.76 332.75 391.76 332.25 400.61 324.84 400.61 325.34 391.76" style="opacity: 0.2; transform-origin: 328.794998px 396.184998px;" class="animable"></polygon></g><path d="M350.69,220.72s-.64,64.41-1.84,85.64c-1.32,23.24-13.42,92.11-13.42,92.11H321.85s5.92-67,5.1-90c-.89-25-1.43-87.75-1.43-87.75Z" style="fill: rgb(38, 50, 56); transform-origin: 336.270004px 309.594971px;" id="elg6ka154k4p" class="animable"></path><polygon points="320.76 398.47 337.32 398.47 338.13 393.32 320.06 394.12 320.76 398.47" style="fill: rgb(38, 50, 56); transform-origin: 329.095001px 395.895004px;" id="elesrtetudpx" class="animable"></polygon><path d="M334.8,409.35a9.5,9.5,0,0,1-2-.26.17.17,0,0,1-.06-.31c.24-.17,2.33-1.6,3.24-1.24a.64.64,0,0,1,.4.48,1,1,0,0,1-.21.94A2,2,0,0,1,334.8,409.35Zm-1.5-.51c1.33.26,2.31.22,2.65-.12a.62.62,0,0,0,.13-.62.3.3,0,0,0-.2-.24C335.4,407.67,334.16,408.29,333.3,408.84Z" style="fill: rgb(255, 215, 0); transform-origin: 334.540741px 408.41983px;" id="elc8e5gpejfte" class="animable"></path><path d="M332.87,409.09a.11.11,0,0,1-.08,0,.16.16,0,0,1-.09-.14c0-.09-.18-2.22.57-2.94a.89.89,0,0,1,.73-.24.67.67,0,0,1,.63.52c.17.81-.94,2.36-1.67,2.8A.15.15,0,0,1,332.87,409.09Zm1-3a.53.53,0,0,0-.37.15,3.82,3.82,0,0,0-.49,2.35c.65-.54,1.38-1.72,1.27-2.25,0-.1-.08-.22-.33-.25Z" style="fill: rgb(255, 215, 0); transform-origin: 333.664307px 407.430038px;" id="el1fdslf1p713" class="animable"></path><path d="M362.05,160.49a7.21,7.21,0,0,0-5.47-5,45,45,0,0,0-5.55-.95,147.89,147.89,0,0,0-16.85,0c-2.94.14-5.94.5-8.33.85h-.09a4.73,4.73,0,0,0-4,5.5A232.84,232.84,0,0,1,325.45,191c.58,14.67-.21,26.19.07,29.73h39.65C367.58,184.92,364.47,168.65,362.05,160.49Z" style="fill: rgb(230, 230, 230); transform-origin: 343.86441px 187.514915px;" id="elilpkz36yoj" class="animable"></path><path d="M335.3,153.88c3.12,12.66,6,44.74,5.95,69.82H324.49c-.3-3.74.54-15.88-.07-31.35a247.72,247.72,0,0,0-3.85-31.69,5,5,0,0,1,4.18-5.8h.09c2.52-.37,5.68-.75,8.78-.9Z" style="fill: rgb(38, 50, 56); transform-origin: 330.873367px 188.790009px;" id="el4zkvjolrv2" class="animable"></path><path d="M364.09,160.67a8.39,8.39,0,0,0-6-5.67,74.78,74.78,0,0,0-8-.82c3.17,11,9.39,44.51,7.54,69.52h10.58C370.72,186.17,366.45,167.53,364.09,160.67Z" style="fill: rgb(38, 50, 56); transform-origin: 359.532547px 188.939987px;" id="elsxydzhbeya" class="animable"></path><polygon points="425.89 195.34 347 229.1 337.52 207.06 416.42 173.3 425.89 195.34" style="fill: rgb(255, 215, 0); transform-origin: 381.705002px 201.200005px;" id="elwvb8v2bp2fb" class="animable"></polygon><path d="M359.31,208.15a4.61,4.61,0,1,1-6.06-2.42A4.61,4.61,0,0,1,359.31,208.15Z" style="fill: rgb(255, 255, 255); transform-origin: 355.072144px 209.965172px;" id="elgjy8xy2hamc" class="animable"></path><path d="M361.3,212.05a6.56,6.56,0,0,1-9,3.86,6,6,0,0,0-1.14,6l15.3-6.54A6,6,0,0,0,361.3,212.05Z" style="fill: rgb(255, 255, 255); transform-origin: 358.631927px 216.980003px;" id="elmrriue9ia2" class="animable"></path><polygon points="414.67 185.48 368.56 205.21 367.52 202.77 413.63 183.04 414.67 185.48" style="fill: rgb(255, 255, 255); transform-origin: 391.095001px 194.125px;" id="el1jx4gvcgnw4" class="animable"></polygon><polygon points="411.24 193.07 370.79 210.38 369.74 207.94 410.19 190.63 411.24 193.07" style="fill: rgb(255, 255, 255); transform-origin: 390.48999px 200.505005px;" id="el9vmb3d18b5m" class="animable"></polygon><g id="ell9o44aiorpi"><path d="M329.67,173.5c-.28-8.41-6.49-11.62-8.24-9.36a2.43,2.43,0,0,0-.21.29c1.09,6.48,2.42,15.4,3,24.19C327.17,186.92,329.93,181.49,329.67,173.5Z" style="opacity: 0.3; transform-origin: 325.453522px 176.028641px;" class="animable"></path></g><path d="M350.23,154.52c-4.9-1.16-5.76-4.19-5.43-7.52a19.92,19.92,0,0,1,.39-2.48l-6.14-5.1-4.51-3.74c1.25,5.43,2.66,15.32-1,18.94,0,0,3,5,11.43,4.56C352,158.79,350.23,154.52,350.23,154.52Z" style="fill: rgb(181, 91, 82); transform-origin: 341.984283px 147.443703px;" id="elbuhh95en4va" class="animable"></path><path d="M341.6,163.65a11.89,11.89,0,0,1,2.76-4.44,25.48,25.48,0,0,1-10-6.12l-2.57,1S332.7,160.62,341.6,163.65Z" style="fill: rgb(255, 255, 255); transform-origin: 338.075012px 158.370003px;" id="eldjg22ycolh9" class="animable"></path><path d="M348.46,162.53a12.41,12.41,0,0,0-4.1-3.32c2.47-.7,3.43-5.71,3.43-5.71l2.41.5S354.65,160.53,348.46,162.53Z" style="fill: rgb(255, 255, 255); transform-origin: 348.053986px 158.014992px;" id="eljyf0wmd6hpi" class="animable"></path><g id="el0vtr43ifyme"><path d="M345.19,144.52a19.92,19.92,0,0,0-.39,2.48c-2.29-.46-5.35-2.9-5.67-5.24a10.66,10.66,0,0,1-.08-2.34Z" style="opacity: 0.2; transform-origin: 342.104645px 143.209999px;" class="animable"></path></g><path d="M348.05,117.85c3.09-.56,6.69,2.68,5,9.26S343.33,118.7,348.05,117.85Z" style="fill: rgb(38, 50, 56); transform-origin: 350.032532px 123.28141px;" id="elglp3cwa2ba7" class="animable"></path><path d="M332.68,127.87c1.57,7.21,2.12,11.5,6.38,14.79a9.59,9.59,0,0,0,15.51-6.91c.56-6.71-2.09-17.37-9.68-19.41A9.7,9.7,0,0,0,332.68,127.87Z" style="fill: rgb(181, 91, 82); transform-origin: 343.530579px 130.328403px;" id="elbqabn2m9pa8" class="animable"></path><path d="M335.58,135.68c1.06-2.5,2-9.46,1.14-12.35,3.45-.11,10.7-.75,13.72-4.11,4.64-5.16-1.48-11.26-9.18-6.4-5,3.13-15.79,2.51-14,6C322,124.61,327.91,131.15,335.58,135.68Z" style="fill: rgb(38, 50, 56); transform-origin: 338.65242px 123.361305px;" id="elhhgpmnfj9e9" class="animable"></path><path d="M327.25,119.08a.25.25,0,0,1-.19-.09c-.64-.79-.84-1.45-.62-2,.53-1.32,3.28-1.68,6.45-2.08,3-.38,6.32-.81,7.38-2.16a.26.26,0,0,1,.35,0,.24.24,0,0,1,0,.35c-1.19,1.51-4.5,1.93-7.7,2.34-2.77.36-5.63.72-6,1.78-.15.38,0,.89.53,1.52a.25.25,0,0,1,0,.35A.3.3,0,0,1,327.25,119.08Z" style="fill: rgb(38, 50, 56); transform-origin: 333.524841px 115.892414px;" id="el25loc2cpke8" class="animable"></path><path d="M331.57,133.69a6.92,6.92,0,0,0,3.68,2.85c1.93.58,2.59-1.2,1.81-3.08-.71-1.7-2.57-4.05-4.38-3.8S330.48,132,331.57,133.69Z" style="fill: rgb(181, 91, 82); transform-origin: 334.172607px 133.146561px;" id="el7fs5c500hsi" class="animable"></path><path d="M343,128.59c.09.59.48,1,.87,1s.62-.56.53-1.15-.48-1-.87-1S342.91,128,343,128.59Z" style="fill: rgb(38, 50, 56); transform-origin: 343.699982px 128.514999px;" id="elnkkvnlawq1h" class="animable"></path><path d="M349.71,127.79c.09.59.48,1,.87,1s.63-.57.53-1.16-.48-1-.86-1S349.62,127.2,349.71,127.79Z" style="fill: rgb(38, 50, 56); transform-origin: 350.412155px 127.710007px;" id="el0l9k4w8nnc8" class="animable"></path><path d="M348.68,128.34a22.46,22.46,0,0,0,3.62,4.72,3.4,3.4,0,0,1-2.76.86Z" style="fill: rgb(160, 39, 36); transform-origin: 350.490005px 131.14595px;" id="eljayajz2v98" class="animable"></path><path d="M347.36,135.81a5.12,5.12,0,0,1-3.73-1.54.17.17,0,1,1,.26-.23,5,5,0,0,0,4.12,1.38.17.17,0,0,1,.2.15.17.17,0,0,1-.15.19A5.76,5.76,0,0,1,347.36,135.81Z" style="fill: rgb(38, 50, 56); transform-origin: 345.898849px 134.89595px;" id="el9c7v2of018" class="animable"></path><path d="M340.81,126.68a.41.41,0,0,1-.17-.05.35.35,0,0,1-.13-.48,3.36,3.36,0,0,1,2.62-1.77.35.35,0,0,1,.37.33.35.35,0,0,1-.33.37,2.66,2.66,0,0,0-2.05,1.42A.35.35,0,0,1,340.81,126.68Z" style="fill: rgb(38, 50, 56); transform-origin: 341.981644px 125.529713px;" id="el3e0oxwxkm8g" class="animable"></path><path d="M352.72,125.15a.34.34,0,0,1-.29-.16,2.94,2.94,0,0,0-2.22-1.34.35.35,0,1,1,0-.7h0a3.64,3.64,0,0,1,2.8,1.65.36.36,0,0,1-.1.49A.35.35,0,0,1,352.72,125.15Z" style="fill: rgb(38, 50, 56); transform-origin: 351.463089px 124.050007px;" id="elttqz56t0dr" class="animable"></path><path d="M330.58,165.75c.05-.06,0,0,0,0l0,0-.07.11-.17.28-.36.63c-.25.45-.49.91-.73,1.39-.46,1-.91,2-1.31,3a43.43,43.43,0,0,0-1.9,6.44,48.2,48.2,0,0,0-.81,13.77,18.45,18.45,0,0,0,.39,2.88,15.61,15.61,0,0,0,.95,2.79,32.81,32.81,0,0,0,3.39,5.82,82.72,82.72,0,0,0,9.76,11l.14.14a3.24,3.24,0,0,1-3.73,5.21,52.56,52.56,0,0,1-7.18-4.43,55,55,0,0,1-6.51-5.52,37.5,37.5,0,0,1-5.6-7.11,24.78,24.78,0,0,1-2.15-4.45,26.82,26.82,0,0,1-1.21-4.83,51.17,51.17,0,0,1-.8-8.77,49.23,49.23,0,0,1,.67-8.89,47.2,47.2,0,0,1,2.33-8.74,41.39,41.39,0,0,1,1.85-4.23c.36-.7.73-1.39,1.15-2.08.21-.35.43-.7.66-1.06l.37-.54.5-.69a6.5,6.5,0,0,1,10.37,7.83Z" style="fill: rgb(38, 50, 56); transform-origin: 326.75824px 187.502815px;" id="elnv7k2oaygdq" class="animable"></path><path d="M341.84,213.94l4.13-.22-4.79,8s-6.68-.85-6-4.26l.93-1A8.52,8.52,0,0,1,341.84,213.94Z" style="fill: rgb(181, 91, 82); transform-origin: 340.55069px 217.720001px;" id="elxq628ju9lr" class="animable"></path><polygon points="350.25 216.59 346.65 225.09 341.18 221.75 345.97 213.72 350.25 216.59" style="fill: rgb(181, 91, 82); transform-origin: 345.714996px 219.404999px;" id="elk5e8qp9hjyj" class="animable"></polygon></g><defs>     <filter id="active" height="200%">         <feMorphology in="SourceAlpha" result="DILATED" operator="dilate" radius="2"></feMorphology>                <feFlood flood-color="#32DFEC" flood-opacity="1" result="PINK"></feFlood>        <feComposite in="PINK" in2="DILATED" operator="in" result="OUTLINE"></feComposite>        <feMerge>            <feMergeNode in="OUTLINE"></feMergeNode>            <feMergeNode in="SourceGraphic"></feMergeNode>        </feMerge>    </filter>    <filter id="hover" height="200%">        <feMorphology in="SourceAlpha" result="DILATED" operator="dilate" radius="2"></feMorphology>                <feFlood flood-color="#ff0000" flood-opacity="0.5" result="PINK"></feFlood>        <feComposite in="PINK" in2="DILATED" operator="in" result="OUTLINE"></feComposite>        <feMerge>            <feMergeNode in="OUTLINE"></feMergeNode>            <feMergeNode in="SourceGraphic"></feMergeNode>        </feMerge>            <feColorMatrix type="matrix" values="0   0   0   0   0                0   1   0   0   0                0   0   0   0   0                0   0   0   1   0 "></feColorMatrix>    </filter></defs></svg>